<svg xmlns="http://www.w3.org/2000/svg" xmlns:xlink="http://www.w3.org/1999/xlink" viewBox="0,0,256,256" width="100px" height="100px"><g fill="#ffffff" fill-rule="nonzero" stroke="none" stroke-width="1" stroke-linecap="butt" stroke-linejoin="miter" stroke-miterlimit="10" stroke-dasharray="" stroke-dashoffset="0" font-family="none" font-weight="none" font-size="none" text-anchor="none" style="mix-blend-mode: normal"><g transform="scale(10.66667,10.66667)"><path d="M16.403,9h-2.403v-2c0,-1.032 0.084,-1.682 1.563,-1.682h0.868c0.552,0 1,-0.448 1,-1v-1.254c0,-0.523 -0.401,-0.97 -0.923,-1.005c-0.604,-0.041 -1.209,-0.06 -1.815,-0.059c-2.713,0 -4.693,1.657 -4.693,4.699v2.301h-2c-0.552,0 -1,0.448 -1,1v2c0,0.552 0.448,1 1,1l2,-0.001v8.001c0,0.552 0.448,1 1,1h2c0.552,0 1,-0.448 1,-1v-8.003l2.174,-0.001c0.508,0 0.935,-0.381 0.993,-0.886l0.229,-1.996c0.069,-0.593 -0.395,-1.114 -0.993,-1.114z"></path></g></g></svg>