<?xml version="1.0" encoding="iso-8859-1"?><!-- Generator: Adobe Illustrator 22.1.0, SVG Export Plug-In . SVG Version: 6.00 Build 0)  --><svg xmlns="http://www.w3.org/2000/svg" xmlns:xlink="http://www.w3.org/1999/xlink" viewBox="0 0 24 24" width="100px" height="100px"><g id="Outlined"><line style="fill:none;stroke:#000000;stroke-width:2;stroke-miterlimit:10;" x1="24" y1="12" x2="21" y2="12"/><line style="fill:none;stroke:#000000;stroke-width:2;stroke-miterlimit:10;" x1="3" y1="12" x2="0" y2="12"/><line style="fill:none;stroke:#000000;stroke-width:2;stroke-miterlimit:10;" x1="12" y1="3" x2="12" y2="0"/><line style="fill:none;stroke:#000000;stroke-width:2;stroke-miterlimit:10;" x1="20.485" y1="20.485" x2="18.364" y2="18.364"/><line style="fill:none;stroke:#000000;stroke-width:2;stroke-miterlimit:10;" x1="5.636" y1="5.636" x2="3.515" y2="3.515"/><line style="fill:none;stroke:#000000;stroke-width:2;stroke-miterlimit:10;" x1="20.485" y1="3.515" x2="18.364" y2="5.636"/><line style="fill:none;stroke:#000000;stroke-width:2;stroke-miterlimit:10;" x1="5.636" y1="18.364" x2="3.515" y2="20.485"/><g><g><path style="fill:none;stroke:#000000;stroke-width:2;stroke-miterlimit:10;" d="M18,12c0-3.314-2.686-6-6-6s-6,2.686-6,6c0,2.611,1.671,4.827,4,5.651V21c0,0.552,0.448,1,1,1h2c0.552,0,1-0.448,1-1v-3.349C16.329,16.827,18,14.611,18,12z"/></g></g><line style="fill:none;stroke:#000000;stroke-width:2;stroke-miterlimit:10;" x1="3" y1="12" x2="0" y2="12"/></g></svg>